<svg xmlns="http://www.w3.org/2000/svg" viewBox="4 184 112 112" width="64" height="64">
  <defs>
    <clipPath id="favicon-z-clip">
      <rect x="0" width="96" y="0" height="137" />
    </clipPath>
  </defs>
  <g transform="translate(11,156)">
    <g clip-path="url(#favicon-z-clip)">
      <g fill="#8c52ff" transform="translate(5.778604, 118.393523)">
        <path d="M 69.09375 -33.40625 L 85.796875 -16.703125 L 69.09375 0 L 1.9375 0 L 1.9375 -23.53125 L 23.75 -46.140625 L 12.390625 -46.140625 L -4.3125 -62.84375 L 12.390625 -79.546875 L 79.546875 -79.546875 L 79.546875 -55.6875 L 57.84375 -33.40625 Z M 3.40625 -22.953125 L 3.40625 -1.9375 L 77.734375 -77.84375 L 56.9375 -77.84375 Z M 56.25 -77.84375 L 13.40625 -77.84375 L 28.296875 -62.953125 L 41.8125 -62.953125 Z M -2.15625 -62.84375 L 12.84375 -47.953125 L 27.734375 -62.84375 L 12.84375 -77.734375 Z M 3.984375 -1.703125 L 24.78125 -1.703125 L 78.078125 -56.359375 L 78.078125 -77.390625 Z M 13.40625 -47.609375 L 26.9375 -47.609375 L 41.359375 -62.5 L 28.296875 -62.5 Z M 68.40625 -31.703125 L 54.65625 -31.703125 L 40.34375 -17.046875 L 83.296875 -17.046875 Z M 68.40625 -1.703125 L 83.296875 -16.359375 L 39.78125 -16.359375 L 25.453125 -1.703125 Z M 68.40625 -1.703125 " />
      </g>
    </g>
  </g>
</svg>
